<?xml version="1.0" encoding="UTF-8" standalone="no"?>
<svg
   width="162.18558"
   zoomAndPan="magnify"
   viewBox="0 0 121.63918 133.03055"
   height="177.37407"
   preserveAspectRatio="xMidYMid"
   version="1.0"
   id="svg61"
   sodipodi:docname="logo_solution.svg"
   inkscape:version="1.4.2 (f4327f4, 2025-05-13)"
   xmlns:inkscape="http://www.inkscape.org/namespaces/inkscape"
   xmlns:sodipodi="http://sodipodi.sourceforge.net/DTD/sodipodi-0.dtd"
   xmlns="http://www.w3.org/2000/svg"
   xmlns:svg="http://www.w3.org/2000/svg">
  <sodipodi:namedview
     id="namedview1"
     pagecolor="#505050"
     bordercolor="#eeeeee"
     borderopacity="1"
     inkscape:showpageshadow="0"
     inkscape:pageopacity="0"
     inkscape:pagecheckerboard="0"
     inkscape:deskcolor="#505050"
     inkscape:zoom="0.85872353"
     inkscape:cx="778.48106"
     inkscape:cy="105.38898"
     inkscape:window-width="3440"
     inkscape:window-height="1369"
     inkscape:window-x="-8"
     inkscape:window-y="-8"
     inkscape:window-maximized="1"
     inkscape:current-layer="svg61">
    <inkscape:page
       x="0"
       y="0"
       width="121.63918"
       height="133.03055"
       id="page2"
       margin="0"
       bleed="0" />
  </sodipodi:namedview>
  <defs
     id="defs8">
    <clipPath
       id="14c8bf0493">
      <path
         d="M 193.84375,96.035156 H 341 V 241 H 193.84375 Z m 0,0"
         clip-rule="nonzero"
         id="path7" />
    </clipPath>
    <clipPath
       clipPathUnits="userSpaceOnUse"
       id="clipPath1">
      <path
         d="M 195,124 H 832.84372 V 257 H 195 Z m 0,0"
         clip-rule="nonzero"
         id="path1"
         style="stroke-width:0.999997" />
    </clipPath>
  </defs>
  <path
     fill="#0174bd"
     d="m 208.30469,124.22266 c 4.39453,0.35156 8.11328,1.13672 12.22265,2.70703 l 1.69141,0.64062 c 17.48047,6.76563 33.33203,16.15235 47.13281,28.85938 1.58985,1.45703 3.21094,2.86328 4.83985,4.27343 2.86328,2.54688 5.375,5.23438 7.78906,8.20704 l 1.58984,1.94531 c 10.91016,13.64453 19.72656,29.20703 22.58594,46.59375 1.88672,12.55859 1.39453,24.66015 -2.85156,36.72265 l -0.66407,1.36329 -1.3789,0.6875 -0.0781,-2.19532 c -0.55078,-12.99218 -3.03515,-26.53125 -9.73828,-37.89062 -13.82812,-21.32813 -31.87109,-37.83985 -54.5039,-49.50781 -13,-6.46485 -26.64844,-9.79297 -41.03125,-11.46875 0.51171,-7.51563 2.82031,-14.17188 6.15625,-20.88282 l 0.67187,-1.36328 c 1.60156,-3.11328 3.47656,-5.88281 5.56641,-8.6914"
     fill-opacity="1"
     fill-rule="nonzero"
     id="path236"
     clip-path="url(#clipPath1)"
     transform="matrix(0.83046775,0,0,0.83046775,-160.98098,-79.754104)"
     inkscape:export-filename="logo_icon.svg"
     inkscape:export-xdpi="96"
     inkscape:export-ydpi="96" />
  <g
     clip-path="url(#14c8bf0493)"
     id="g237"
     transform="matrix(0.83046775,0,0,0.83046775,-160.98098,-79.754104)">
    <path
       fill="#fdc903"
       d="m 193.84375,164.09766 c 5.74233,0.88316 17.21484,2.75 17.21484,2.75 l 0.23047,1.96484 c 1.51953,12.30078 4.79297,22.81641 12.1875,32.95313 5.67578,7.24609 12.82422,12.98437 21.37891,16.55468 7.42187,2.89063 14.05859,4.34766 22.0625,4.34375 h 1.92578 c 4.95312,-0.0352 14.51562,-1.5039 14.51562,-1.5039 l 6.19532,14.4375 c 0,0 -19.43696,6.51365 -36.72266,3.41406 -13.86719,-2.98828 -25.91797,-9.91016 -36.45312,-19.23828 -9.26172,-8.76172 -15.27735,-19.85938 -19.08985,-31.92188 -2.79409,-7.84814 -3.44531,-15.57783 -3.44531,-23.7539 z m 89.51562,-68.062504 c 10.41797,1.6875 20.62891,6.796874 28.78516,13.378904 2.69922,2.28907 5.22656,4.72657 7.71094,7.2461 l 1.73437,1.73828 c 8.2461,8.66797 14.19922,20.24218 17.00391,31.85937 2.85938,14.15235 2.21484,27.8086 -2.38281,41.50781 -2.55469,7.12891 -6.04297,13.56251 -10.375,19.76954 l -0.87891,1.26172 c -0.83594,1.14453 -0.83594,1.14453 -2.34766,2.86328 h -2.0664 l 0.3789,-1.09375 c 4.74219,-14.59766 5.55469,-31.05078 2.40626,-46.08985 -1.36719,-5.88672 -3.02735,-11.68359 -4.85157,-17.4414 l -0.74218,-2.36719 c -6.27735,-17.91016 -18.44141,-34.51953 -31.47266,-48.14844 -1.30469,-1.484374 -2.15234,-2.679686 -2.90235,-4.484374"
       fill-opacity="1"
       fill-rule="nonzero"
       id="path237"
       sodipodi:nodetypes="ccccccccccccccccccccccccccccc" />
  </g>
  <path
     fill="#0174bd"
     d="m 34.986681,5.1547264 c 2.88716,0.73315 5.20015,2.01779 7.75969,3.51651 l 1.58307,0.91806 c 8.21708,4.8627796 15.75617,10.5754996 22.5751,17.2451796 l 1.84907,1.75826 c 13.11556,12.615951 24.20037,29.475101 29.42971,46.960331 1.76798,6.48803 2.468699,13.10905 3.033159,19.79501 h -1.14514 l -0.295209,-0.95701 c -2.20593,-7.07521 -4.7168,-13.66703 -8.28196,-20.16804 l -1.06404,-2.01778 c -4.45079,-8.1587 -10.20891,-15.30201 -16.66127,-21.96197 l -0.81424,-0.85642 c -7.23091,-7.61047 -15.51288,-13.498331 -24.34633,-19.126701 l -1.18732,-0.76559 c -8.87885,-5.68675 -18.649827,-9.41088 -28.550547,-12.93712 1.05105,-2.3292 2.55628,-3.56842 4.57405,-5.06716 0.33413,-0.24979 0.66502,-0.49633 1.00889,-0.75261 7.58775,-5.6088996 7.58775,-5.6088996 10.533317,-5.5829496"
     fill-opacity="1"
     fill-rule="nonzero"
     id="path238"
     style="stroke-width:0.830467" />
</svg>
