<svg id="visual" viewBox="0 0 960 540" width="960" height="540" xmlns="http://www.w3.org/2000/svg" xmlns:xlink="http://www.w3.org/1999/xlink" version="1.1"><rect x="0" y="0" width="960" height="540" fill="#9fbbe6"></rect><defs><linearGradient id="grad1_0" x1="43.8%" y1="100%" x2="100%" y2="0%"><stop offset="14.444444444444446%" stop-color="#0ea0e3" stop-opacity="1"></stop><stop offset="85.55555555555554%" stop-color="#0ea0e3" stop-opacity="1"></stop></linearGradient></defs><defs><linearGradient id="grad1_1" x1="43.8%" y1="100%" x2="100%" y2="0%"><stop offset="14.444444444444446%" stop-color="#0ea0e3" stop-opacity="1"></stop><stop offset="85.55555555555554%" stop-color="#51a6e4" stop-opacity="1"></stop></linearGradient></defs><defs><linearGradient id="grad1_2" x1="43.8%" y1="100%" x2="100%" y2="0%"><stop offset="14.444444444444446%" stop-color="#71ade5" stop-opacity="1"></stop><stop offset="85.55555555555554%" stop-color="#51a6e4" stop-opacity="1"></stop></linearGradient></defs><defs><linearGradient id="grad1_3" x1="43.8%" y1="100%" x2="100%" y2="0%"><stop offset="14.444444444444446%" stop-color="#71ade5" stop-opacity="1"></stop><stop offset="85.55555555555554%" stop-color="#8ab4e6" stop-opacity="1"></stop></linearGradient></defs><defs><linearGradient id="grad1_4" x1="43.8%" y1="100%" x2="100%" y2="0%"><stop offset="14.444444444444446%" stop-color="#9fbbe6" stop-opacity="1"></stop><stop offset="85.55555555555554%" stop-color="#8ab4e6" stop-opacity="1"></stop></linearGradient></defs><defs><linearGradient id="grad2_0" x1="0%" y1="100%" x2="56.3%" y2="0%"><stop offset="14.444444444444446%" stop-color="#0ea0e3" stop-opacity="1"></stop><stop offset="85.55555555555554%" stop-color="#0ea0e3" stop-opacity="1"></stop></linearGradient></defs><defs><linearGradient id="grad2_1" x1="0%" y1="100%" x2="56.3%" y2="0%"><stop offset="14.444444444444446%" stop-color="#51a6e4" stop-opacity="1"></stop><stop offset="85.55555555555554%" stop-color="#0ea0e3" stop-opacity="1"></stop></linearGradient></defs><defs><linearGradient id="grad2_2" x1="0%" y1="100%" x2="56.3%" y2="0%"><stop offset="14.444444444444446%" stop-color="#51a6e4" stop-opacity="1"></stop><stop offset="85.55555555555554%" stop-color="#71ade5" stop-opacity="1"></stop></linearGradient></defs><defs><linearGradient id="grad2_3" x1="0%" y1="100%" x2="56.3%" y2="0%"><stop offset="14.444444444444446%" stop-color="#8ab4e6" stop-opacity="1"></stop><stop offset="85.55555555555554%" stop-color="#71ade5" stop-opacity="1"></stop></linearGradient></defs><defs><linearGradient id="grad2_4" x1="0%" y1="100%" x2="56.3%" y2="0%"><stop offset="14.444444444444446%" stop-color="#8ab4e6" stop-opacity="1"></stop><stop offset="85.55555555555554%" stop-color="#9fbbe6" stop-opacity="1"></stop></linearGradient></defs><g transform="translate(960, 540)"><path d="M-378 0C-348.4 -54.4 -318.8 -108.7 -291 -168C-263.2 -227.3 -237.2 -291.5 -189 -327.4C-140.8 -363.2 -70.4 -370.6 0 -378L0 0Z" fill="#95b7e6"></path><path d="M-302.4 0C-278.7 -43.5 -255 -87 -232.8 -134.4C-210.5 -181.8 -189.8 -233.2 -151.2 -261.9C-112.6 -290.5 -56.3 -296.5 0 -302.4L0 0Z" fill="#7eb0e6"></path><path d="M-226.8 0C-209 -32.6 -191.3 -65.2 -174.6 -100.8C-157.9 -136.4 -142.3 -174.9 -113.4 -196.4C-84.5 -217.9 -42.2 -222.4 0 -226.8L0 0Z" fill="#62aae5"></path><path d="M-151.2 0C-139.4 -21.7 -127.5 -43.5 -116.4 -67.2C-105.3 -90.9 -94.9 -116.6 -75.6 -130.9C-56.3 -145.3 -28.2 -148.2 0 -151.2L0 0Z" fill="#3aa3e4"></path><path d="M-75.6 0C-69.7 -10.9 -63.8 -21.7 -58.2 -33.6C-52.6 -45.5 -47.4 -58.3 -37.8 -65.5C-28.2 -72.6 -14.1 -74.1 0 -75.6L0 0Z" fill="#0ea0e3"></path></g><g transform="translate(0, 0)"><path d="M378 0C343.8 51.7 309.5 103.4 282.3 163C255.1 222.6 234.9 290.2 189 327.4C143.1 364.5 71.6 371.3 0 378L0 0Z" fill="#95b7e6"></path><path d="M302.4 0C275 41.3 247.6 82.7 225.9 130.4C204.1 178.1 187.9 232.2 151.2 261.9C114.5 291.6 57.2 297 0 302.4L0 0Z" fill="#7eb0e6"></path><path d="M226.8 0C206.3 31 185.7 62 169.4 97.8C153.1 133.6 140.9 174.1 113.4 196.4C85.9 218.7 42.9 222.8 0 226.8L0 0Z" fill="#62aae5"></path><path d="M151.2 0C137.5 20.7 123.8 41.3 112.9 65.2C102 89.1 94 116.1 75.6 130.9C57.2 145.8 28.6 148.5 0 151.2L0 0Z" fill="#3aa3e4"></path><path d="M75.6 0C68.8 10.3 61.9 20.7 56.5 32.6C51 44.5 47 58 37.8 65.5C28.6 72.9 14.3 74.3 0 75.6L0 0Z" fill="#0ea0e3"></path></g></svg>